<svg xmlns="http://www.w3.org/2000/svg" viewBox="0 0 549.3 549.3">
  <path
    fill-rule="evenodd"
    fill="currentColor"
    d="M274.65 549.3c-98.86 0-185.65-52.51-234.06-131.1l.24-.08c.37 0 .75-4.5 24.81-62 25.55-60.51 57.13-130.42 78.56-177.78l-32.7 222.87c-2.27 20.67 47.72 17.66 47.72 16.91v-.75c.39-1.89 4.13-12 24.81-61.27 21.05-50 42.47-106.36 59-151.46A527.8 527.8 0 0 0 228 310.25c-2.6 65-4.65 116.09 22.46 149 37.06 45 122.65 48.95 210.27 17.17a273.58 273.58 0 0 1-186.08 72.88zm262.52-193.85c-21.63-6.39-43.73-11.41-65-18.89-32.09-11.28-65-30.54-77.88-63.89-6.26-16.27-6.6-34.14 1.68-49.77C403.56 208.52 417.3 197 434 196c4.91-.28 6.69-5.27 5.34-8.73a5.48 5.48 0 0 0-2.75-3.23c-21.62-11.88-48.54-10.79-69.83 1.4-20.29 11.62-34.45 32.68-40 55.15-6.57 26.58-1.54 54.48 9.84 79 5.56 12 12.67 23.47 15.47 36.51 2.33 10.81 1.38 24.37-7.84 31.85-8.56 7-22.47 7.42-30.74-.25-8.06-7.47-9.81-20.32-4.37-29.76 2.15-3.73-.53-9.34-5.18-9a39.18 39.18 0 0 0-28.8 15.52c.38-17.4 2.39-37.92 6.22-62.09l11.64-73.3a656.24 656.24 0 0 1 26-100.72c5.26-13.55-35.33-16.55-48.86-17.68-3.38-.37-7.9-.75-10.9 0l-.74 3c-16.93 42.46-49.63 137.54-87.21 221.74A2015.33 2015.33 0 0 1 216 128.35c3.76-14.3-34.58-18-49.61-18.81a39.87 39.87 0 0 0-10.15 1.13c0 .38-.38.75-.38 1.13C138.93 155 88.19 258 48.73 346c-9.71 21.25-16.79 37.23-21 48.84A272.94 272.94 0 0 1 0 274.65C0 123.21 123.21 0 274.65 0S549.3 123.21 549.3 274.65a273.82 273.82 0 0 1-12.13 80.8z"
  />
</svg>
